# xmcd
#
# Track frame offsets: 
#        150
#        15432
#        26080
#        44347
#        57957
#        71736
#        84835
#        100054
#        111831
#        122791
#        136792
#        154506
#        167687
#        180677
#        201180
#        217550
#        233523
#        255100
#        271029
#        289698
#        306618
#        323840
#        341309
#
# Disc length: 4785 seconds
#
# Revision: 2
# Processed by: cddbd v1.5.2PL0 Copyright (c) Steve Scherf et al.
# Submitted via: ExactAudioCopyFreeDBPlugin 1.0
#
DISCID=2b12af17
DTITLE=Wilson Pickett - Funky Midnight Mover:  The Atlantic Studio Rec
DTITLE=ordings, 1962 - 1978 [box set]
DYEAR=2009
DGENRE=Soul
TTITLE0=Covering the Same Old Gorund
TTITLE1=Don't Knock My Love (Part 1)
TTITLE2=Don't Knock My Love (Part 2)
TTITLE3=Hot Love
TTITLE4=Not Enough to Satisfy
TTITLE5=You Can't Judge a Book By Its Cover
TTITLE6=Pledging My Love
TTITLE7=Mama Told Me Not to Come
TTITLE8=Call My Name, I'll Be There
TTITLE9=Woman Let Me Be Down Home
TTITLE10=One Step Away
TTITLE11=Funk Factory
TTITLE12=Love Danger
TTITLE13=Time to Let the Sun Shine on Me
TTITLE14=Who Turned You On
TTITLE15=Dance You Down
TTITLE16=Dance with Me
TTITLE17=She's So Tight
TTITLE18=The Night We Called It a Day
TTITLE19=Hold on to Your Hiney
TTITLE20=Groovin'
TTITLE21=Lay Me Like You Hate Me
TTITLE22=Funky Situation
EXTD=
EXTT0=
EXTT1=
EXTT2=
EXTT3=
EXTT4=
EXTT5=
EXTT6=
EXTT7=
EXTT8=
EXTT9=
EXTT10=
EXTT11=
EXTT12=
EXTT13=
EXTT14=
EXTT15=
EXTT16=
EXTT17=
EXTT18=
EXTT19=
EXTT20=
EXTT21=
EXTT22=
PLAYORDER=
